<!-- Favicon: the forager ant carrying a comic in a speech bubble
     (owner-provided vector, 2026-07-13). Standalone brand-green mark. -->
<svg xmlns="http://www.w3.org/2000/svg" viewBox="45.16 63.57 115.27 114.35" fill="#57b877" role="img" aria-label="Foragerr">
  <path d="m 57.209019,173.51384 c -0.92308,-0.45557 -1.7062,-1.62626 -1.7062,-2.55061 0,-0.34677 1.26181,-4.1384 2.80403,-8.42584 4.44159,-12.34785 4.39194,-12.18994 3.98392,-12.67049 -3.16562,-3.72825 -4.19827,-5.05331 -5.65073,-7.25075 -8.209686,-12.42049 -9.765089,-28.32005 -4.142622,-42.34647 3.879392,-9.677969 11.265482,-18.316569 20.732482,-24.248249 4.9571,-3.105942 11.7811,-5.903723 17.39355,-7.1312 3.76843,-0.824178 3.58722,-0.930988 2.79623,1.648165 -1.36609,4.454327 -0.82852,3.872083 -4.57936,4.959853 -8.31335,2.410922 -15.1359,6.394822 -21.05388,12.294012 -7.15208,7.12938 -11.20762,15.371979 -12.46306,25.330289 -0.57093,4.52867 -0.23301,9.42473 0.97342,14.10372 1.82921,7.09442 4.84874,12.45815 10.67368,18.96021 1.25987,1.40633 2.29067,2.72529 2.29067,2.93104 0,0.20575 -1.29703,3.99622 -2.88228,8.42326 -1.58525,4.42705 -2.85067,8.08352 -2.81205,8.12549 0.0386,0.042 1.9012,-0.68372 4.13905,-1.61267 2.23785,-0.92894 6.75056,-2.78189 10.02825,-4.11766 5.95943,-2.42867 5.95943,-2.42867 9.19884,-1.36494 5.2549,1.72555 8.99877,2.39575 14.374811,2.57329 8.90167,0.29396 15.54718,-1.13285 23.64817,-5.07734 11.76321,-5.72768 19.98897,-14.77664 23.68744,-26.05798 1.60555,-4.89737 1.95222,-7.63597 1.72238,-13.60615 -0.10698,-2.77884 -0.20673,-5.5287 -0.22165,-6.11078 -0.0245,-0.954 2.4108,-9.16633 2.84773,-9.60327 0.29194,-0.29194 0.61526,0.49004 1.45189,3.51152 2.6794,9.67661 2.65447,18.35299 -0.0783,27.25842 -5.67767,18.50208 -24.27517,33.02641 -45.20792,35.30659 -7.18144,0.78226 -15.380431,0.043 -22.094341,-1.99204 -3.34443,-1.01374 -0.94577,-1.76831 -24.15202,7.59766 -2.11005,0.85161 -4.07458,1.54681 -4.36563,1.54487 -0.29104,-0.002 -0.89246,-0.18281 -1.3365,-0.40195 z m 18.5165,-16.90994 c -0.81351,-1.24157 0.35709,-4.78642 2.26359,-6.85473 1.45182,-1.57504 2.75025,-1.86553 8.39126,-1.87733 4.28694,-0.009 4.28694,-0.009 5.11869,-2.33418 0.45746,-1.27887 1.51888,-3.69651 2.35872,-5.37254 1.52697,-3.04732 1.52697,-3.04732 0.79147,-3.78282 -0.71221,-0.71221 -1.5756,-2.97527 -1.5756,-4.12984 0,-1.42396 0.86956,-3.41101 2.04053,-4.66288 0.66378,-0.70964 1.3511,-1.29025 1.52737,-1.29025 0.17626,0 0.53317,0.47166 0.79313,1.04814 1.16787,2.58988 4.178131,4.63623 7.337131,4.98772 1.5797,0.17577 1.6586,0.21805 1.56993,0.84129 -0.30944,2.17483 -2.51414,4.63026 -4.9888,5.55615 -1.991311,0.74505 -2.622271,0.7016 -2.851091,-0.19632 -0.16049,-0.62978 -0.30323,-0.36872 -1.0617,1.94175 -1.63534,4.98168 -4.12678,9.05957 -6.05519,9.91089 -1.4936,0.65938 -5.22246,1.11514 -8.22284,1.00505 -2.49485,-0.0915 -2.49485,-0.0915 -2.7914,1.09908 -0.42378,1.70148 -1.44829,3.3279 -2.58128,4.09778 -1.2202,0.82915 -1.52791,0.83109 -2.06392,0.013 z m 44.354801,-5.38166 c -1.38043,-1.45112 -2.79334,-4.31032 -4.11248,-8.32208 -1.15216,-3.50396 -1.15216,-3.50396 -4.28411,-3.68947 -3.25562,-0.19285 -5.51321,-0.68161 -5.51321,-1.1936 0,-0.16363 0.39553,-0.85865 0.87895,-1.54449 0.87895,-1.24697 0.87895,-1.24697 2.91042,-1.06541 3.33742,0.2983 5.53114,0.89909 6.55031,1.79393 1.10045,0.9662 2.76415,4.31943 4.06966,8.20247 0.95226,2.83239 0.95226,2.83239 2.08607,2.18838 3.15178,-1.79024 5.56779,-1.14837 4.10139,1.08963 -0.7192,1.09764 -4.47342,3.5469 -5.43667,3.5469 -0.16121,0 -0.72386,-0.45282 -1.25033,-1.00626 z m -40.721641,-6.69869 c -4.83098,-0.80328 -10.08925,-3.74067 -12.63444,-7.05791 -0.86674,-1.12966 -0.94149,-1.35916 -0.81045,-2.48824 0.1873,-1.61384 1.62366,-4.67113 3.17601,-6.76016 2.46857,-3.322 7.57881,-6.24353 10.09521,-5.77145 1.11788,0.20971 1.11053,-0.0249 0.12067,3.85354 -0.48733,1.90948 -0.55465,2.74819 -0.44597,5.55625 0.18044,4.66217 1.05834,7.49823 3.36891,10.8832 0.58049,0.85043 1.05545,1.66664 1.05545,1.81381 0,0.31599 -1.93646,0.30167 -3.92539,-0.029 z m 5.21776,-1.56198 c -2.6114,-2.7815 -4.02951,-6.91675 -4.03542,-11.76745 -0.003,-2.44623 0.38714,-5.15937 0.74186,-5.15937 0.0523,0 0.61326,0.29622 1.24657,0.65827 1.31916,0.75412 3.17152,0.87795 4.54551,0.30386 0.47491,-0.19843 1.59778,-1.04062 2.49526,-1.87153 1.63178,-1.51074 1.63178,-1.51074 2.8501,-0.67251 1.41822,0.97576 1.66344,1.42893 1.1119,2.05478 -0.21965,0.24924 -0.7401,1.10801 -1.15657,1.90838 -0.66934,1.28634 -0.75721,1.73153 -0.75721,3.83646 0,2.15966 0.0796,2.5382 0.85529,4.06793 0.85529,1.68668 0.85529,1.68668 -0.34131,4.00351 -1.14928,2.22523 -1.25632,2.34342 -2.70737,2.98969 -0.83093,0.37008 -1.96683,0.75644 -2.52423,0.85857 -0.97027,0.17779 -1.06933,0.1262 -2.32438,-1.21059 z m 17.625331,-13.00029 c -2.08759,-1.08094 -3.444221,-2.92135 -3.739061,-5.07243 -0.16932,-1.23535 -0.16932,-1.23535 1.28945,-1.23535 0.973911,0 1.568251,-0.13192 1.788151,-0.39688 0.27838,-0.33543 0.22313,-0.39687 -0.35686,-0.39687 -0.97666,0 -4.673451,-1.3958 -6.703381,-2.531 -1.72442,-0.96435 -1.72442,-0.96435 -2.53607,0.0557 -0.44641,0.56104 -1.68021,1.88754 -2.74178,2.94777 -2.88305,2.87943 -4.58929,3.38849 -6.30582,1.88135 -0.94435,-0.82915 -1.25377,-1.93467 -0.60452,-2.15989 0.1819,-0.0631 0.77931,0.0415 1.32758,0.23244 1.23446,0.42993 1.5634,0.3091 2.48391,-0.9124 1.23681,-1.64121 3.60398,-4.03211 4.82899,-4.8774 0.85492,-0.58991 1.45606,-0.80018 2.25322,-0.78813 1.28029,0.0194 5.25266,1.66118 7.107911,2.93777 1.26672,0.87163 1.26672,0.87163 1.08575,0.15061 -0.18096,-0.72103 -0.18096,-0.72103 0.98224,-0.51471 2.18689,0.3879 4.86648,0.53525 6.58717,0.36224 1.00738,-0.1013 1.85077,-0.0655 2.03598,0.0865 0.50618,0.41527 0.94762,3.09105 0.75283,4.56327 -0.51249,3.87339 -3.19352,6.25733 -7.00313,6.22711 -0.95482,-0.008 -1.84711,-0.20477 -2.53256,-0.55969 z m 11.38181,-8.18891 c -0.0859,-0.34783 -0.18171,-0.97103 -0.21279,-1.38489 -0.0563,-0.75011 -0.0449,-0.75569 3.64765,-1.7799 2.03729,-0.56509 4.02308,-1.03014 4.41287,-1.03346 0.88023,-0.007 1.27261,-0.3936 2.35763,-2.31993 0.47168,-0.83741 1.55246,-2.60526 2.40174,-3.92855 1.54414,-2.40599 1.54414,-2.40599 1.11532,-3.26557 -0.52199,-1.04636 -0.35944,-2.72873 0.33949,-3.51362 0.64589,-0.72533 2.11967,-1.32869 2.75383,-1.12741 0.66551,0.21122 0.65019,0.97534 -0.0319,1.59267 -0.3372,0.30516 -0.51199,0.74482 -0.46302,1.16465 0.0636,0.545 0.35793,0.78546 1.53388,1.25303 1.17853,0.46859 1.45521,0.69511 1.45521,1.19145 0,0.45966 -0.29329,0.76078 -1.17324,1.20458 -0.96282,0.48559 -1.34341,0.91509 -2.12199,2.3947 -1.30266,2.47556 -3.20719,5.08781 -4.60911,6.32182 -2.12414,1.86975 -6.1062,3.4507 -9.34537,3.71028 -1.84382,0.14776 -1.90881,0.13262 -2.06015,-0.47985 z m -32.151601,-0.28159 c -8.5036,-1.9616 -13.36657,-3.26635 -13.80382,-3.70361 -0.86802,-0.86802 -0.49274,-2.76464 0.70192,-3.54742 0.65738,-0.43073 0.7614,-0.41218 3.12066,0.55637 7.361,3.02192 12.53724,5.35248 13.36135,6.01583 0.26915,0.21664 0.24747,0.37097 -0.10715,0.76282 -0.52143,0.57618 -0.39729,0.57936 -3.27296,-0.084 z m 3.2237,-4.25343 c -0.87895,-0.61846 -5.17854,-3.83827 -9.55465,-7.15512 -7.26546,-5.50684 -7.95655,-6.09831 -7.95655,-6.8097 0,-0.62118 0.2145,-0.91447 1.05848,-1.44725 2.63738,-1.6649 12.94863,-7.540529 13.23302,-7.540529 0.33477,0 4.1049,2.55818 7.35061,4.98767 1.1251,0.842169 1.87637,1.586569 1.80057,1.784109 -0.0715,0.18644 -0.26598,1.08846 -0.43209,2.0045 -0.50945,2.80943 0.1386,6.20482 1.74797,9.15835 0.49831,0.91451 0.90603,1.77246 0.90603,1.90655 0,0.1341 -0.80368,0.71401 -1.78594,1.2887 -0.98227,0.57469 -2.32172,1.47175 -2.97656,1.99348 -0.65485,0.52172 -1.32612,0.94974 -1.49171,0.95115 -0.16559,10e-4 -1.02022,-0.50345 -1.89918,-1.12191 z m -4.81975,-0.44428 c -4.79449,-1.93811 -11.76832,-5.09823 -12.21175,-5.53361 -0.82271,-0.80781 -0.84965,-1.72763 -0.0775,-2.64532 0.38673,-0.4596 0.91095,-0.83564 1.16493,-0.83564 0.44415,0 2.1161,1.0748 4.91514,3.15964 0.7276,0.54196 2.85403,2.10657 4.7254,3.47693 1.87137,1.37035 3.58908,2.63915 3.81715,2.81955 0.86472,0.684 0.0868,0.53679 -2.3334,-0.44155 z m 22.551501,0.50456 c -2.759051,-0.72282 -4.953471,-1.97152 -6.951851,-3.95582 -2.0625,-2.04797 -3.08414,-3.98562 -3.49251,-6.62396 -0.53806,-3.47611 0.47203,-6.821509 2.86235,-9.480119 0.64825,-0.72102 1.17632,-1.41251 1.17347,-1.53665 -0.003,-0.12414 -1.01677,-1.59493 -2.25315,-3.26842 -2.79005,-3.7764 -4.23482,-6.53738 -3.97099,-7.58858 0.10221,-0.40723 0.8378,-1.89188 1.63465,-3.29923 1.72111,-3.03973 2.88904,-5.741981 4.06782,-9.411718 0.94714,-2.948619 1.67566,-3.952441 2.64516,-3.644736 0.75425,0.239392 1.32127,1.642863 1.32127,3.270402 0,3.139875 -2.53153,8.644802 -5.59613,12.169052 -0.96232,1.10665 -0.98802,1.18555 -0.64636,1.98437 0.29127,0.68103 3.39255,6.27715 4.56054,8.22931 0.29346,0.49047 0.34908,0.48453 1.87414,-0.19987 5.296431,-2.3769 11.703681,-1.06588 15.749131,3.22251 3.46143,3.669299 6.01909,8.395879 6.01909,11.123339 0,5.42847 -6.20205,9.5725 -14.26368,9.53059 -1.86714,-0.01 -3.44618,-0.18335 -4.73295,-0.52047 z m 4.37252,-11.91777 c -0.17079,-1.88349 -1.19001,-3.85204 -2.43592,-4.70481 -1.60934,-1.101519 -3.73814,-0.726609 -4.526081,0.7971 -0.43767,0.84636 -0.49246,2.68076 -0.10187,3.41059 0.424171,0.79258 1.685161,1.3076 3.220161,1.3152 0.78467,0.004 1.86828,0.22066 2.46053,0.49224 0.58208,0.26691 1.16269,0.42605 1.29023,0.35364 0.12754,-0.0724 0.16937,-0.82119 0.093,-1.66396 z m 33.54182,2.90532 c -3.34698,-0.99669 -6.54185,-1.94241 -7.09971,-2.10161 -0.802,-0.22887 -0.97486,-0.38299 -0.82587,-0.73633 0.64075,-1.51962 0.29173,-2.72139 -0.98161,-3.37986 -1.40938,-0.72881 -3.57639,-0.1967 -4.826,1.18505 -0.27722,0.30652 -0.69721,0.55732 -0.93332,0.55732 -0.76624,0 -1.60536,-0.79024 -1.60536,-1.51185 0,-0.37845 1.0031,-3.913809 2.22912,-7.856349 1.22602,-3.94254 3.06935,-9.98261 4.09628,-13.42237 2.12647,-7.122695 2.32014,-7.682492 2.75313,-7.957807 0.43953,-0.279478 1.62977,-0.255904 2.35224,0.04659 0.51256,0.214601 4.92851,1.545313 18.00708,5.426298 2.40275,0.713 2.84328,1.01723 2.83576,1.95841 -0.006,0.77601 -0.0377,0.88508 -4.36163,15.11499 -1.70242,5.602558 -3.31748,10.946838 -3.58903,11.876188 -0.49504,1.69416 -1.13435,2.70303 -1.67594,2.64469 -0.15935,-0.0172 -3.02816,-0.84668 -6.37514,-1.84336 z M 103.26812,90.249851 c -0.32256,-1.42925 -1.19864,-7.0684 -1.19864,-7.71545 0,-1.30567 0.7462,-2.18102 3.75771,-4.40805 1.64404,-1.21578 4.43527,-3.67344 6.20273,-5.46147 2.05143,-2.075309 3.41154,-3.250964 3.761,-3.250964 1.22999,0 1.48009,2.442819 0.45463,4.440566 -1.22518,2.386868 -4.95526,5.488328 -9.12324,7.585738 -1.95862,0.98562 -1.95862,0.98562 -1.78508,5.19528 0.17354,4.20966 0.17354,4.20966 -0.8806,4.20966 -0.877,0 -1.07673,-0.10004 -1.18851,-0.59531 z m 22.87329,-11.16532 c -1.42531,-0.73141 -4.09279,-1.89999 -7.58419,-3.322517 -0.57788,-0.235451 -0.57788,-0.235451 -0.0222,-1.373545 0.39125,-0.801257 0.55248,-1.63159 0.54478,-2.805505 -0.0109,-1.66741 -0.0109,-1.66741 0.80764,-1.48762 2.19819,0.482804 9.6137,3.816378 9.84806,4.427104 0.17054,0.44443 -1.27379,5.281163 -1.6046,5.373443 -0.14552,0.0406 -1.04081,-0.32452 -1.98953,-0.81136 z m -22.1537,-5.634128 c -2.18281,-0.08914 -2.18281,-0.08914 -2.18281,-1.343693 0,-0.690006 -0.16839,-1.903702 -0.3742,-2.697101 -0.2058,-0.7934 -0.31784,-1.533722 -0.24896,-1.645161 0.18015,-0.291495 4.87785,-0.249472 7.50926,0.06717 3.07318,0.369804 3.69723,0.516731 3.69723,0.870479 0,0.16746 -1.03932,1.348625 -2.30959,2.624811 -1.97289,1.982069 -2.42611,2.312487 -3.10885,2.266483 -0.4396,-0.02962 -1.78154,-0.09397 -2.98208,-0.142992 z"/>
</svg>
